<svg width="146" height="181" viewBox="35 18 146 181" fill="none" xmlns="http://www.w3.org/2000/svg">
<path fill-rule="evenodd" clip-rule="evenodd" d="M108.5 18.084C83.5321 18.084 63.2917 38.3244 63.2917 63.2923C63.2917 88.2602 83.5321 108.501 108.5 108.501C133.468 108.501 153.708 88.2602 153.708 63.2923C153.708 38.3244 133.468 18.084 108.5 18.084Z" fill="black"/>
<path fill-rule="evenodd" clip-rule="evenodd" d="M81.375 117.541C66.341 117.541 51.8832 124.399 43.4104 134.724C39.1102 139.964 36.0872 146.448 35.824 153.635C35.5552 160.973 38.2043 168.137 43.6675 174.386C56.9819 189.618 78.24 198.916 108.5 198.916C138.76 198.916 160.018 189.618 173.333 174.386C178.796 168.137 181.445 160.973 181.176 153.635C180.913 146.448 177.89 139.964 173.59 134.724C165.117 124.399 150.659 117.541 135.625 117.541H81.375Z" fill="black"/>
</svg>
